<?xml version="1.0" ?><!DOCTYPE svg  PUBLIC '-//W3C//DTD SVG 1.1//EN'  'http://www.w3.org/Graphics/SVG/1.1/DTD/svg11.dtd' [
	<!ENTITY stroke_color "#FFFFFF">
	<!ENTITY fill_color "#A0A0A0">
]><svg enable-background="new 0 0 55 55" height="55px" version="1.1" viewBox="0 0 55 55" width="55px" x="0px" xml:space="preserve" xmlns="http://www.w3.org/2000/svg" xmlns:xlink="http://www.w3.org/1999/xlink" y="0px">
  <g
     transform="translate(0,-20)"
     id="Layer_3" />
  <g
     transform="translate(0,-20)"
     id="Layer_4" />
  <g
     transform="translate(0,-20)"
     id="Layer_2" />
  <g
     transform="translate(0,-20)"
     id="SEARCH" />
  <g
     transform="translate(0,-20)"
     id="Layer_5" />
  <g
     transform="translate(0,-20)"
     id="Layer_7" />
  <path
     d="m 39.397229,21.994 c 0,-6.626 -5.373,-11.999 -12,-11.999 -6.627,0 -12,5.373 -12,11.999 0,4.939 2.986,9.178 7.25,11.02 v 6.48 h 9.5 v -6.48 c 4.264,-1.842 7.25,-6.081 7.25,-11.02 z"
     id="path3319"
     style="fill:&fill_color;;fill-opacity:1;stroke:&stroke_color;;stroke-opacity:1" />
  <g
     transform="translate(-10.352771,-8.755)"
     id="T4GGIM.tif_1_"
     style="fill:&stroke_color;;fill-opacity:1;stroke:none">
    <g
       id="g3322"
       style="fill:&stroke_color;;fill-opacity:1;stroke:none">
      <path
         d="m 51.899,32.196 c -0.158,0.781 -0.269,1.576 -0.483,2.344 -0.99,3.549 -3.092,6.275 -6.198,8.234 -0.262,0.164 -0.345,0.332 -0.342,0.625 0.013,1.447 0.008,2.895 0.005,4.342 -0.002,1.555 -1.227,2.783 -2.778,2.785 -2.821,0.002 -5.642,0.002 -8.462,0 -1.579,-0.002 -2.791,-1.225 -2.792,-2.814 -0.001,-1.434 -0.011,-2.865 0.008,-4.297 0.004,-0.32 -0.104,-0.488 -0.368,-0.658 -3.434,-2.189 -5.619,-5.258 -6.42,-9.268 -1.536,-7.69 3.816,-15.296 11.581,-16.476 7.285,-1.109 14.003,3.322 15.838,10.457 0.177,0.688 0.276,1.396 0.412,2.093 -10e-4,0.878 -10e-4,1.756 -10e-4,2.633 z m -9.823,15.508 c 0,-0.207 0,-0.367 0,-0.527 0,-1.826 0.006,-3.654 -0.007,-5.48 -0.001,-0.27 0.077,-0.426 0.316,-0.551 0.413,-0.215 0.813,-0.459 1.214,-0.699 3.893,-2.324 6.027,-6.717 5.385,-11.078 -0.958,-6.506 -6.995,-10.802 -13.439,-9.435 -4.138,0.879 -6.972,3.438 -8.305,7.443 -1.319,3.96 -0.523,7.606 2.172,10.813 1.082,1.285 2.476,2.168 3.934,2.959 0.234,0.127 0.318,0.277 0.316,0.549 -0.013,1.842 -0.006,3.684 -0.006,5.525 0,0.154 0,0.311 0,0.48 2.824,10e-4 5.596,10e-4 8.42,10e-4 z"
         id="path3324"
         style="fill:&stroke_color;;fill-opacity:1;stroke:none" />
      <path
         d="M 35.849,61.755 C 35.613,61.65 35.368,61.566 35.143,61.441 34.185,60.91 33.697,60.078 33.636,58.996 32.68,58.785 32.227,58.287 32.251,57.48 c 0.021,-0.74 0.601,-1.334 1.345,-1.336 2.846,-0.008 5.693,-0.006 8.539,0 0.667,0.002 1.245,0.52 1.338,1.162 0.101,0.697 -0.272,1.34 -0.915,1.562 -0.147,0.053 -0.303,0.08 -0.466,0.123 -0.072,1.451 -0.906,2.297 -2.209,2.764 -1.344,0 -2.69,0 -4.034,0 z"
         id="path3326"
         style="fill:&stroke_color;;fill-opacity:1;stroke:none" />
      <path
         d="m 37.88,51.931 c 1.374,0 2.748,-0.002 4.123,0 0.872,0.002 1.471,0.564 1.477,1.385 0.005,0.846 -0.591,1.42 -1.484,1.422 -2.763,0 -5.525,0.002 -8.289,-0.002 -0.86,0 -1.456,-0.58 -1.455,-1.406 10e-4,-0.824 0.597,-1.396 1.462,-1.398 1.389,-0.003 2.778,-0.001 4.166,-0.001 z"
         id="path3328"
         style="fill:&stroke_color;;fill-opacity:1;stroke:none" />
    </g>
  </g>
  <g
     transform="translate(-10.352771,-8.755)"
     id="g3330"
     style="fill:none;stroke:&stroke_color;;stroke-opacity:1">
    <path
       d="M 36.21,48.062 V 36.499 c 0,0 0.469,-2.969 -0.719,-3.656 -1.188,-0.687 -3.219,-0.25 -3.219,1.688 0,1.938 1.531,2 5.625,1.906"
       id="path3332"
       style="fill:none;stroke:&stroke_color;;stroke-opacity:1" />
    <path
       d="M 39.023,48.062 V 36.499 c 0,0 -0.469,-2.969 0.719,-3.656 1.188,-0.687 3.219,-0.25 3.219,1.688 0,1.938 -1.531,2 -5.625,1.906"
       id="path3334"
       style="fill:none;stroke:&stroke_color;;stroke-opacity:1" />
  </g>
</svg>
