<?xml version="1.0" ?><!DOCTYPE svg  PUBLIC '-//W3C//DTD SVG 1.1//EN'  'http://www.w3.org/Graphics/SVG/1.1/DTD/svg11.dtd' [
	<!ENTITY stroke_color "#FFFFFF">
	<!ENTITY fill_color "#A0A0A0">
]><svg enable-background="new 0 0 55 55" height="55px" version="1.1" viewBox="0 0 55 55" width="55px" x="0px" xml:space="preserve" xmlns="http://www.w3.org/2000/svg" xmlns:xlink="http://www.w3.org/1999/xlink" y="0px">
  <g
     transform="translate(0,-20)"
     id="Layer_3" />
  <g
     transform="translate(0,-20)"
     id="Layer_4" />
  <g
     transform="translate(0,-20)"
     id="Layer_2" />
  <g
     transform="translate(0,-20)"
     id="SEARCH" />
  <g
     transform="translate(0,-20)"
     id="Layer_5" />
  <g
     transform="translate(0,-20)"
     id="Layer_7" />
  <path
     d="m 39.145,21.994 c 0,-6.626 -5.373,-11.999 -12,-11.999 -6.627,0 -12,5.373 -12,11.999 0,4.939 2.986,9.178 7.25,11.02 v 6.48 h 9.5 v -6.48 c 4.264,-1.842 7.25,-6.081 7.25,-11.02 z"
     id="path3463"
     style="fill:&fill_color;;fill-opacity:1;stroke:&stroke_color;;stroke-opacity:1" />
  <g
     transform="translate(-10.598,-8.756)"
     id="T4GGIM.tif_8_"
     style="fill:&stroke_color;;fill-opacity:1;stroke:none">
    <g
       id="g3466"
       style="fill:&stroke_color;;fill-opacity:1;stroke:none">
      <path
         d="m 51.976,32.197 c -0.158,0.781 -0.269,1.576 -0.483,2.344 -0.99,3.549 -3.092,6.275 -6.198,8.234 -0.262,0.164 -0.345,0.332 -0.342,0.625 0.013,1.447 0.008,2.895 0.005,4.342 -0.002,1.555 -1.227,2.783 -2.778,2.785 -2.821,0.002 -5.642,0.002 -8.462,0 -1.579,-0.002 -2.791,-1.225 -2.792,-2.814 -10e-4,-1.434 -0.011,-2.865 0.008,-4.297 0.004,-0.32 -0.104,-0.488 -0.368,-0.658 C 27.132,40.569 24.947,37.5 24.146,33.49 22.61,25.8 27.962,18.194 35.727,17.014 c 7.285,-1.109 14.003,3.322 15.838,10.457 0.177,0.688 0.276,1.395 0.412,2.092 -10e-4,0.877 -10e-4,1.757 -10e-4,2.634 z m -9.823,15.508 c 0,-0.207 0,-0.367 0,-0.527 0,-1.826 0.006,-3.654 -0.007,-5.48 -10e-4,-0.27 0.077,-0.426 0.316,-0.551 0.413,-0.215 0.813,-0.459 1.214,-0.699 3.893,-2.324 6.027,-6.717 5.385,-11.079 -0.958,-6.506 -6.995,-10.801 -13.439,-9.434 -4.138,0.879 -6.972,3.438 -8.305,7.443 -1.319,3.96 -0.523,7.606 2.172,10.813 1.082,1.285 2.476,2.168 3.934,2.959 0.234,0.127 0.318,0.277 0.316,0.549 -0.013,1.842 -0.006,3.684 -0.006,5.525 0,0.154 0,0.311 0,0.48 2.824,10e-4 5.596,10e-4 8.42,10e-4 z"
         id="path3468"
         style="fill:&stroke_color;;fill-opacity:1;stroke:none" />
      <path
         d="m 35.925,61.756 c -0.236,-0.105 -0.481,-0.189 -0.706,-0.314 -0.958,-0.531 -1.446,-1.363 -1.507,-2.445 -0.956,-0.211 -1.409,-0.709 -1.385,-1.516 0.021,-0.74 0.601,-1.334 1.345,-1.336 2.846,-0.008 5.693,-0.006 8.539,0 0.667,0.002 1.245,0.52 1.338,1.162 0.101,0.697 -0.272,1.34 -0.915,1.562 -0.147,0.053 -0.303,0.08 -0.466,0.123 -0.072,1.451 -0.906,2.297 -2.209,2.764 -1.344,0 -2.689,0 -4.034,0 z"
         id="path3470"
         style="fill:&stroke_color;;fill-opacity:1;stroke:none" />
      <path
         d="m 37.957,51.932 c 1.374,0 2.748,-0.002 4.123,0 0.872,0.002 1.471,0.564 1.477,1.385 0.005,0.846 -0.591,1.42 -1.484,1.422 -2.763,0 -5.525,0.002 -8.289,-0.002 -0.86,0 -1.456,-0.58 -1.455,-1.406 10e-4,-0.824 0.597,-1.396 1.462,-1.398 1.389,-0.003 2.777,-10e-4 4.166,-10e-4 z"
         id="path3472"
         style="fill:&stroke_color;;fill-opacity:1;stroke:none" />
    </g>
  </g>
  <g
     transform="translate(-10.598,-8.756)"
     id="g3474"
     style="fill:&stroke_color;;fill-opacity:1;stroke:none">
    <path
       d="m 56.792,32.4 c -1.084,0 -2.169,0 -3.208,0 0,-1.055 0,-2.063 0,-3.118 1.04,0 2.124,0 3.208,0 0,1.037 0,2.079 0,3.118 z"
       id="path3476"
       style="fill:&stroke_color;;fill-opacity:1;stroke:none" />
    <path
       d="m 53.512,20.11 c 0.537,0.934 1.043,1.812 1.572,2.732 -0.951,0.549 -1.867,1.078 -2.775,1.602 -0.537,-0.922 -1.047,-1.797 -1.584,-2.719 0.91,-0.527 1.826,-1.058 2.787,-1.615 z"
       id="path3478"
       style="fill:&stroke_color;;fill-opacity:1;stroke:none" />
    <path
       d="m 28.963,18.196 c -0.531,-0.918 -1.062,-1.838 -1.611,-2.785 0.912,-0.527 1.791,-1.035 2.729,-1.576 0.539,0.934 1.07,1.852 1.606,2.779 -0.916,0.532 -1.802,1.047 -2.724,1.582 z"
       id="path3480"
       style="fill:&stroke_color;;fill-opacity:1;stroke:none" />
    <path
       d="m 21.073,22.843 c 0.546,-0.945 1.054,-1.824 1.577,-2.73 0.953,0.553 1.871,1.084 2.785,1.613 -0.533,0.916 -1.043,1.793 -1.582,2.721 -0.904,-0.524 -1.82,-1.051 -2.78,-1.604 z"
       id="path3482"
       style="fill:&stroke_color;;fill-opacity:1;stroke:none" />
    <path
       d="m 48.806,15.407 c -0.544,0.943 -1.073,1.861 -1.607,2.787 -0.905,-0.525 -1.78,-1.033 -2.718,-1.576 0.516,-0.898 1.041,-1.812 1.598,-2.781 0.913,0.527 1.802,1.039 2.727,1.57 z"
       id="path3484"
       style="fill:&stroke_color;;fill-opacity:1;stroke:none" />
    <path
       d="m 36.553,12.149 c 1.023,0 2.023,0 3.055,0 0,1.088 0,2.166 0,3.184 -1.022,0 -2.021,0 -3.055,0 0,-1 0,-2.064 0,-3.184 z"
       id="path3486"
       style="fill:&stroke_color;;fill-opacity:1;stroke:none" />
    <path
       d="m 22.574,29.315 c 0,1.02 0,2.026 0,3.06 -1.008,0 -2.07,0 -3.17,0 0,-1.006 0,-2.017 0,-3.06 1.066,0 2.139,0 3.17,0 z"
       id="path3488"
       style="fill:&stroke_color;;fill-opacity:1;stroke:none" />
    <path
       d="m 50.947,40.088 c 0.44,-0.979 0.863,-1.92 1.299,-2.887 0.951,0.549 1.873,1.082 2.838,1.639 -0.526,0.914 -1.033,1.793 -1.569,2.725 -0.865,-0.497 -1.712,-0.985 -2.568,-1.477 z"
       id="path3490"
       style="fill:&stroke_color;;fill-opacity:1;stroke:none" />
    <path
       d="m 25.191,40.102 c -0.841,0.484 -1.678,0.967 -2.543,1.465 -0.527,-0.914 -1.036,-1.795 -1.572,-2.725 0.945,-0.547 1.865,-1.08 2.824,-1.635 0.432,0.967 0.852,1.908 1.291,2.895 z"
       id="path3492"
       style="fill:&stroke_color;;fill-opacity:1;stroke:none" />
  </g>
  <g
     transform="translate(-10.598,-8.756)"
     id="g3494"
     style="fill:none;stroke:&stroke_color;;stroke-opacity:1">
    <line
       stroke-miterlimit="10"
       x1="36.474998"
       y1="48.414001"
       x2="36.474998"
       y2="34.852001"
       id="line3496"
       style="fill:none;stroke:&stroke_color;;stroke-miterlimit:10;stroke-opacity:1" />
    <line
       stroke-miterlimit="10"
       x1="39.286999"
       y1="48.414001"
       x2="39.286999"
       y2="34.852001"
       id="line3498"
       style="fill:none;stroke:&stroke_color;;stroke-miterlimit:10;stroke-opacity:1" />
    <g
       id="g3500"
       style="fill:none;stroke:&stroke_color;;stroke-opacity:1">
      <path
         d="m 36.475,32.664 v -3.562 c 0,0 0.469,-2.969 -0.719,-3.656 -1.188,-0.687 -3.219,-0.25 -3.219,1.688 0,1.938 1.531,2 5.625,1.906"
         id="path3502"
         style="fill:none;stroke:&stroke_color;;stroke-opacity:1" />
      <path
         d="m 39.287,32.664 v -3.562 c 0,0 -0.469,-2.969 0.719,-3.656 1.188,-0.687 3.219,-0.25 3.219,1.688 0,1.938 -1.531,2 -5.625,1.906"
         id="path3504"
         style="fill:none;stroke:&stroke_color;;stroke-opacity:1" />
    </g>
    <g
       id="g3506"
       style="fill:none;stroke:&stroke_color;;stroke-opacity:1">
      <path
         d="m 36.475,29.142 v 3.562 c 0,0 0.469,2.969 -0.719,3.656 -1.188,0.687 -3.219,0.25 -3.219,-1.688 0,-1.938 1.531,-2 5.625,-1.906"
         id="path3508"
         style="fill:none;stroke:&stroke_color;;stroke-opacity:1" />
      <path
         d="m 39.287,29.142 v 3.562 c 0,0 -0.469,2.969 0.719,3.656 1.188,0.687 3.219,0.25 3.219,-1.688 0,-1.938 -1.531,-2 -5.625,-1.906"
         id="path3510"
         style="fill:none;stroke:&stroke_color;;stroke-opacity:1" />
    </g>
  </g>
</svg>
